/vscmnt/brussel_pixiu_data/_data_brussel/112/vsc11236/PredSimResults/SUBJ07_Falisse2022/weightedWalking/worker_02.mot
version=1
nRows=4
nColumns=124
inDegrees=yes
endheader
                time	         pelvis_tilt	         pelvis_list	     pelvis_rotation	           pelvis_tx	           pelvis_ty	           pelvis_tz	       hip_flexion_r	     hip_adduction_r	      hip_rotation_r	        knee_angle_r	       ankle_angle_r	    subtalar_angle_r	         mtp_angle_r	       hip_flexion_l	     hip_adduction_l	      hip_rotation_l	        knee_angle_l	       ankle_angle_l	    subtalar_angle_l	         mtp_angle_l	    lumbar_extension	      lumbar_bending	     lumbar_rotation	          arm_flex_r	           arm_add_r	           arm_rot_r	        elbow_flex_r	          arm_flex_l	           arm_add_l	           arm_rot_l	        elbow_flex_l	glut_med1_r/activation	glut_med2_r/activation	glut_med3_r/activation	glut_min1_r/activation	glut_min2_r/activation	glut_min3_r/activation	semimem_r/activation	semiten_r/activation	bifemlh_r/activation	bifemsh_r/activation	    sar_r/activation	add_long_r/activation	add_brev_r/activation	add_mag1_r/activation	add_mag2_r/activation	add_mag3_r/activation	    tfl_r/activation	   pect_r/activation	   grac_r/activation	glut_max1_r/activation	glut_max2_r/activation	glut_max3_r/activation	iliacus_r/activation	  psoas_r/activation	quad_fem_r/activation	    gem_r/activation	   peri_r/activation	rect_fem_r/activation	vas_med_r/activation	vas_int_r/activation	vas_lat_r/activation	med_gas_r/activation	lat_gas_r/activation	 soleus_r/activation	tib_post_r/activation	flex_dig_r/activation	flex_hal_r/activation	tib_ant_r/activation	per_brev_r/activation	per_long_r/activation	per_tert_r/activation	ext_dig_r/activation	ext_hal_r/activation	glut_med1_l/activation	glut_med2_l/activation	glut_med3_l/activation	glut_min1_l/activation	glut_min2_l/activation	glut_min3_l/activation	semimem_l/activation	semiten_l/activation	bifemlh_l/activation	bifemsh_l/activation	    sar_l/activation	add_long_l/activation	add_brev_l/activation	add_mag1_l/activation	add_mag2_l/activation	add_mag3_l/activation	    tfl_l/activation	   pect_l/activation	   grac_l/activation	glut_max1_l/activation	glut_max2_l/activation	glut_max3_l/activation	iliacus_l/activation	  psoas_l/activation	quad_fem_l/activation	    gem_l/activation	   peri_l/activation	rect_fem_l/activation	vas_med_l/activation	vas_int_l/activation	vas_lat_l/activation	med_gas_l/activation	lat_gas_l/activation	 soleus_l/activation	tib_post_l/activation	flex_dig_l/activation	flex_hal_l/activation	tib_ant_l/activation	per_brev_l/activation	per_long_l/activation	per_tert_l/activation	ext_dig_l/activation	ext_hal_l/activation	 ercspn_r/activation	 ercspn_l/activation	 intobl_r/activation	 intobl_l/activation	 extobl_r/activation	 extobl_l/activation	
          1.01871248	         -9.00215905	         -1.38769040	          4.16048169	          1.31413910	          0.84299157	         -0.00699096	         38.95025281	          2.35031698	          2.05553590	        -20.09045905	        -12.66742269	         -8.81753623	          0.13793052	        -14.08003784	          0.26717743	         12.25557038	         -4.96248079	         -0.99156326	         -2.42861849	         35.84862622	          0.42928019	         -0.65537545	         -0.52135874	        -20.61620913	        -14.31398567	          6.42837638	         36.87384466	         14.31781030	        -14.01908806	         17.43470217	         66.26518268	          0.02287863	          0.01001521	          0.01001303	          0.01009431	          0.01003134	          0.01002061	          0.07415086	          0.02863426	          0.01601274	          0.02641947	          0.02989542	          0.07509896	          0.13401270	          0.13819763	          0.11372948	          0.06681931	          0.01003024	          0.02058620	          0.09697134	          0.01003123	          0.01034491	          0.05757822	          0.02996789	          0.02997063	          0.02873089	          0.01005314	          0.01001202	          0.01000895	          0.02812903	          0.03282936	          0.03111228	          0.01102994	          0.01157293	          0.01031417	          0.01000571	          0.01001120	          0.01001030	          0.01803402	          0.05288439	          0.02389275	          0.08206076	          0.11737980	          0.04811077	          0.09741864	          0.08841465	          0.08150626	          0.19823664	          0.16448812	          0.14338769	          0.01004581	          0.01000753	          0.01000461	          0.04189980	          0.07515571	          0.01639560	          0.01000782	          0.01001184	          0.01003018	          0.01001032	          0.28176277	          0.01017831	          0.01117294	          0.02669484	          0.01600063	          0.01001972	          0.25879378	          0.42959885	          0.02191427	          0.02545353	          0.13104080	          0.04806785	          0.01000652	          0.01000679	          0.01000645	          0.29870240	          0.39704570	          0.31482089	          0.34181088	          0.45481861	          0.45265442	          0.01000081	          0.01000594	          0.01000872	          0.01000344	          0.01000107	          0.01000458	          0.03961442	          0.01000034	          0.04793328	          0.01000077	          0.11076378	          0.01000065	
          1.02889961	         -8.98451647	         -1.84504650	          4.42197649	          1.32954185	          0.84165115	         -0.00679821	         38.59636464	          2.94943072	          2.35300108	        -19.91067598	        -12.48571435	         -9.38782083	          0.13615119	        -13.87280554	         -0.16480501	         11.78499052	         -7.18578844	         -1.19431587	         -1.80087593	         36.96954196	          0.54301788	         -0.00376506	         -0.56447369	        -21.61128486	        -14.31594842	          6.27683818	         36.54754084	         14.20097940	        -14.03346745	         17.61638076	         67.97808372	          0.03097184	          0.01000373	          0.01000231	          0.01016954	          0.01000906	          0.01000554	          0.06338867	          0.02447896	          0.01368927	          0.02258519	          0.02555685	          0.06420670	          0.11603027	          0.12302028	          0.10107021	          0.06035194	          0.01000608	          0.01987290	          0.08289872	          0.01000326	          0.01000348	          0.05923102	          0.02561848	          0.02562082	          0.02456725	          0.01001381	          0.01000146	          0.01000194	          0.07149893	          0.07664726	          0.07159343	          0.01000231	          0.01000644	          0.01000016	          0.01368491	          0.01368477	          0.01368254	          0.02268667	          0.04521020	          0.02042560	          0.07939006	          0.10034384	          0.04113162	          0.11266893	          0.07558228	          0.06967641	          0.16951598	          0.14061580	          0.12257674	          0.01004882	          0.01000804	          0.01000396	          0.03581855	          0.06424855	          0.03937657	          0.01000487	          0.01000497	          0.01001525	          0.01000703	          0.24086828	          0.05603407	          0.01926110	          0.02282320	          0.01368240	          0.01000748	          0.22123215	          0.36724619	          0.01873412	          0.02176142	          0.11202151	          0.04109135	          0.01000270	          0.01000278	          0.01000255	          0.25534808	          0.33941784	          0.30493574	          0.33488572	          0.44447920	          0.45080033	          0.01000043	          0.01001250	          0.01001012	          0.01000290	          0.01000077	          0.01000281	          0.03905796	          0.01000020	          0.04097652	          0.01000061	          0.09468750	          0.01000048	
          1.03908673	         -8.96312010	         -2.28922859	          4.66772918	          1.34515045	          0.84019765	         -0.00657006	         38.12342190	          3.55760013	          2.67645533	        -20.07733840	        -11.54249730	         -9.98849759	          0.22085641	        -13.55383462	         -0.57750684	         11.29423878	         -9.63081569	         -1.41603791	         -1.16866495	         37.84599297	          0.66830358	          0.64355489	         -0.60478412	        -22.44880062	        -14.30594830	          6.31162017	         35.89419068	         14.01343546	        -14.03958027	         17.75008280	         69.51099359	          0.06422359	          0.01000965	          0.01001229	          0.01169629	          0.01164461	          0.01002995	          0.05418846	          0.02092642	          0.01170270	          0.01930736	          0.02184806	          0.05488970	          0.09919071	          0.10516700	          0.08640325	          0.06361496	          0.01000310	          0.01702725	          0.07086758	          0.01003442	          0.01002379	          0.05063620	          0.02190034	          0.02190235	          0.03146401	          0.01002278	          0.08314584	          0.01000152	          0.17064993	          0.16944563	          0.14971568	          0.01000089	          0.01000186	          0.01361154	          0.01169906	          0.01169941	          0.01169751	          0.01939442	          0.03864979	          0.01746149	          0.16761466	          0.11075129	          0.10245302	          0.12562555	          0.06461235	          0.05956355	          0.14491510	          0.12020758	          0.10478616	          0.01001472	          0.01000626	          0.01000529	          0.03061992	          0.05492406	          0.04557291	          0.11244955	          0.01168673	          0.01006869	          0.01000659	          0.20590874	          0.05047113	          0.01659783	          0.01951355	          0.01170546	          0.01004197	          0.18912213	          0.31394335	          0.01601557	          0.01860508	          0.09576267	          0.03512741	          0.01000209	          0.01000214	          0.01000186	          0.21828630	          0.29015411	          0.28867725	          0.31162234	          0.37997700	          0.38541055	          0.01000313	          0.01000085	          0.01000051	          0.01000199	          0.01000094	          0.01000845	          0.03708543	          0.01000069	          0.03502923	          0.01000322	          0.08094443	          0.01000041	
          1.04927385	         -8.93950635	         -2.72327674	          4.89548083	          1.36088727	          0.83868614	         -0.00630953	         37.50873032	          4.17854535	          3.03073372	        -20.72640453	         -9.86002991	        -10.62078114	          0.61057384	        -13.10932852	         -0.97349980	         10.79186524	        -12.30588223	         -1.65682536	         -0.55043911	         38.36667020	          0.79853058	          1.28879577	         -0.64203358	        -23.10911412	        -14.28617430	          6.53631587	         34.91141689	         13.76537142	        -14.03606517	         17.84463203	         70.84805731	          0.21851167	          0.05344304	          0.08787369	          0.01000397	          0.01000810	          0.01002332	          0.04632351	          0.01788951	          0.01000449	          0.01650522	          0.01867744	          0.04692422	          0.08479532	          0.08990773	          0.07386499	          0.05438225	          0.01369445	          0.01457504	          0.06058257	          0.08236709	          0.05682695	          0.04328745	          0.01872181	          0.01872356	          0.10183391	          0.01828527	          0.07107825	          0.01600707	          0.20925806	          0.20505778	          0.18418544	          0.01000012	          0.01000022	          0.07611552	          0.01000121	          0.01000212	          0.01000140	          0.01658045	          0.11063942	          0.04815729	          0.14329209	          0.09467676	          0.08758317	          0.10739344	          0.05523456	          0.05091845	          0.17174637	          0.10276127	          0.08957765	          0.02171307	          0.01000654	          0.01000286	          0.02617581	          0.04695270	          0.03895905	          0.21476775	          0.01000515	          0.01001274	          0.01000527	          0.17602327	          0.04314882	          0.01419040	          0.01668354	          0.01001226	          0.01000374	          0.16167261	          0.26837700	          0.01369125	          0.01590587	          0.08186368	          0.03002912	          0.01000142	          0.01000146	          0.01000127	          0.18660375	          0.24804059	          0.26483108	          0.26639524	          0.32482832	          0.32947394	          0.01000202	          0.01000148	          0.01000066	          0.01000266	          0.01000109	          0.01000731	          0.03170325	          0.02286787	          0.02994515	          0.01000028	          0.06919603	          0.01000117	
